<svg height="512" viewBox="0 0 60 50" width="512" xmlns="http://www.w3.org/2000/svg"><g id="Page-1" fill="none" fill-rule="evenodd"><g id="004---Hiking-Boot" fill="rgb(255,255,255)" fill-rule="nonzero"><path id="Shape" d="m52 29h-5.95c-9.8908886.0014099-18.2901315-7.243102-19.741-17.027-.203857-1.3615523-.3071365-2.73627237-.309-4.113v-3.86c0-2.209139-1.790861-4-4-4h-5.73c-.9154896.00334791-1.8127131.25643754-2.595.732-1.128.678-3.789 1.861-8.928 2.18-2.10649629.13894755-3.74473544 1.8869273-3.747 3.998v34.368c-.61675126.3544126-.997855 1.0106732-1 1.722v5c0 1.1045695.8954305 2 2 2h2.4c.73812922.0003868 1.41558042-.4086258 1.759-1.062l1-1.931 1.749 2.223c.38005318.4872921.96402617.7715267 1.582.77h1.9c.7470556.0004884 1.432688-.4135873 1.78-1.075l1-1.918 1.744 2.223c.3787585.4856284.9601324.7696753 1.576.77h1.9c.7476983.0017633 1.4339383-.4136838 1.779-1.077l.985-1.923 1.755 2.234c.3806486.4855127.964063.768179 1.581.766h11.49c1.31 0 2.554-.022 3.725-.06.7304179-.0243093 1.3889461-.4464428 1.716-1.1l.886-1.766c.0185335-.0392807.0566986-.0656147.1-.069.043136-.0067923.0866129.0099882.114.044l1.379 1.764c.4288319.5377816 1.1003033.8225457 1.785.757.694-.0666667 1.3526667-.1396667 1.976-.219.7447937-.0936254 1.373343-.5987856 1.625-1.306l.682-1.885c.0139498-.0512224.0558575-.0900258.108-.1.0500985-.0124394.1030663.0019376.14.038l1.674 1.61c.5042831.4839625 1.2240284.6707174 1.9.493.7625897-.1954115 1.5148726-.4290398 2.254-.7 1.1786709-.4318986 1.9606539-1.5556993 1.956-2.811v-7.69c-.0049599-4.4162219-3.5837781-7.9950401-8-8zm6 8v1.32c-2.885 1.07-8.339 2-13.86 2.425.5778163-2.7730922 3.0273725-4.7565639 5.86-4.745h7.91c.0578863.3302334.0879917.6647376.09 1zm-30.824-16.787-2.319 1.449c-.525649-.4255254-1.1807086-.6590469-1.857-.662-1.2864885-.0097191-2.4381854.7958597-2.8702556 2.007661s-.0498417 2.5643043.9525888 3.3707038c1.0024304.8063996 2.4054176.8900036 3.4965206.2083575 1.091103-.681646 1.6312474-1.9791848 1.3461462-3.2337223l2.348-1.467c.8042194 1.1156567 1.7111815 2.153524 2.709 3.1l-1.9 2.227c-.3441467-.1381277-.7111775-.2103805-1.082-.213-1.6568542 0-3 1.3431458-3 3s1.3431458 3 3 3 3-1.3431458 3-3c-.0033103-.5212833-.1440429-1.0324738-.408-1.482l1.9-2.228c1.2831195 1.0170428 2.6761403 1.8871357 4.153 2.594l-.706 2.122c-1.4737617.0185234-2.7195002 1.0968315-2.9490831 2.552719s.6238722 2.8652233 2.020416 3.336373c1.3965438.4711498 2.9293333-.1331423 3.6286297-1.4305633.6992965-1.297421.3613798-2.9100044-.7999626-3.8175287l.661-1.991c2.41826.8877217 4.9739508 1.3426685 7.55 1.344h5.95c2.1406804.0029098 4.1176608 1.1461135 5.188 3h-7.188c-3.9910205-.0169079-7.3766396 2.9264206-7.915 6.881-1.4.076-2.781.119-4.105.119h-16.6c-3.0219182-8.1584381-9.9175003-14.2695446-18.38-16.289v-12.725c7.471-.141 11.081-1.839 12.794-3.277.5415699-.45582879 1.2261349-.70678876 1.934-.709h6.277c.0069048 1.42861412.1158487 2.8549103.326 4.268.09.6.21 1.192.348 1.778l-2.114.423c-.7469305-1.2558069-2.2899688-1.7908378-3.6539792-1.2669755s-2.1522164 1.9542317-1.8665047 3.3871745 1.5622305 2.4516307 3.0228498 2.4122955c1.4606194-.0393351 2.6804602-1.1252511 2.8886341-2.5714945l2.269-.454c.4985915 1.477384 1.1525883 2.8976734 1.951 4.237zm-3.176 3.787c0 .5522847-.4477153 1-1 1s-1-.4477153-1-1 .4477153-1 1-1 1 .4477153 1 1zm5 6c0 .5522847-.4477153 1-1 1s-1-.4477153-1-1 .4477153-1 1-1 1 .4477153 1 1zm8 4c0 .5522847-.4477153 1-1 1s-1-.4477153-1-1 .4477153-1 1-1 1 .4477153 1 1zm-17.75 7h-16.25v-14.235c7.3619417 1.9102338 13.3873981 7.1885336 16.25 14.235zm1.75-25c0 .5522847-.4477153 1-1 1s-1-.4477153-1-1 .4477153-1 1-1 1 .4477153 1 1zm-16.128-11.092c5.283-.327 8.263-1.519 9.835-2.462.4706374-.28828739 1.011097-.44250683 1.563-.446h5.73c1.1045695 0 2 .8954305 2 2v2h-6.272c-1.1781521.0025635-2.3179156.41917893-3.22 1.177-1.2 1.009-4.279 2.666-11.508 2.809v-3.076c.00023911-1.0558601.81853121-1.93097805 1.872-2.002zm53.128 39.782c.005506.4173593-.2536825.7925006-.646.935-.6798397.2506342-1.3720815.4662505-2.074.646l-1.68-1.611c-.5252227-.5044588-1.2699409-.7090654-1.9791755-.5437657-.7092345.1652997-1.2867537.6780771-1.5348245 1.3627657l-.673 1.887c-.609.076-1.251.145-1.939.214l-1.386-1.773c-.4505064-.5675103-1.1585137-.8672193-1.8795549-.7956409-.7210413.0715785-1.3563062.5046352-1.6864451 1.1496409l-.885 1.78c-1.151.037-2.373.059-3.661.059h-11.5l-1.754-2.234c-.3724624-.4804018-.9451314-.7628644-1.553-.766-.057 0-.114 0-.171.008-.6779591.057876-1.2799857.4564644-1.598 1.058l-1.012 1.934h-1.907l-1.746-2.225c-.4213076-.5341697-1.0846392-.8184009-1.762-.755-.6690755.0624665-1.2601592.4616742-1.568 1.059l-1.019 1.921h-1.9l-1.751-2.229c-.42119174-.5343208-1.08460967-.818589-1.762-.755-.66907548.0624665-1.26015918.4616742-1.568 1.059l-1.005 1.925h-2.4v-5h35.98c6.245 0 15.147-.965 20.020086-2.558z"/><path id="Shape" d="m10.464 14.021c-2.74982577-.2565363-5.18696373 1.7646742-5.4435 4.5145s1.76467423 5.1869637 4.5145 5.4435c.15733333.014.31233333.021.465.021 2.6729586.0017295 4.8745572-2.0991485 4.9979084-4.76926.1233511-2.6701114-1.8751751-4.9650227-4.5369084-5.20974zm-.743 7.966c-1.64967311-.1540882-2.86208441-1.6163254-2.70799678-3.2659986.15408762-1.6496732 1.61632435-2.862085 3.26599758-2.707998 1.6496732.154087 2.8620856 1.6163233 2.7079992 3.2659966-.0688011.7943279-.4530401 1.5279591-1.0668057 2.0368621s-1.4058651.7506315-2.1991943.6711379z"/><path id="Shape" d="m23 39h8c.5522847 0 1-.4477153 1-1s-.4477153-1-1-1h-8c-.5522847 0-1 .4477153-1 1s.4477153 1 1 1z"/></g></g></svg>