<svg height="512" viewBox="0 0 56 60" width="512" xmlns="http://www.w3.org/2000/svg"><g id="Page-1" fill="none" fill-rule="evenodd"><g id="013---Backpack" fill="rgb(255,255,255)" fill-rule="nonzero"><path id="Shape" d="m20 55h16c2.209139 0 4-1.790861 4-4v-6c0-2.209139-1.790861-4-4-4h-16c-2.209139 0-4 1.790861-4 4v6c0 2.209139 1.790861 4 4 4zm-2-10c0-1.1045695.8954305-2 2-2h16c1.1045695 0 2 .8954305 2 2v6c0 1.1045695-.8954305 2-2 2h-16c-1.1045695 0-2-.8954305-2-2z"/><path id="Shape" d="m22 48h1v1c0 .5522847.4477153 1 1 1s1-.4477153 1-1v-1h9c.5522847 0 1-.4477153 1-1s-.4477153-1-1-1h-12c-.5522847 0-1 .4477153-1 1s.4477153 1 1 1z"/><path id="Shape" d="m8 60h40c3.3123376-.0033074 5.9966926-2.6876624 6-6v-8.184c1.3765475-.4848523 2.2026937-1.8918441 1.9553873-3.330178s-1.49595-2.4885874-2.9553873-2.485822h-6v-17.206c.000432-2.5991048-1.1150354-5.0733083-3.063-6.794h3.063c2.916 0 3-7.181 3-8s-.084-8-3-8h-38c-2.916 0-3 7.181-3 8s.084 8 3 8h3.063c-1.9479646 1.7206917-3.06343198 4.1948952-3.063 6.794v17.206h-6c-1.45943726-.0027654-2.70808095 1.0474881-2.95538732 2.485822-.24730638 1.4383339.57883984 2.8453257 1.95538732 3.330178v8.184c.00330738 3.3123376 2.68766243 5.9966926 6 6zm0-2c-2.209139 0-4-1.790861-4-4v-8h5v4.954c-.000952 2.7374367 1.2377411 5.3280664 3.369 7.046zm44-4c0 2.209139-1.790861 4-4 4h-4.369c2.1312589-1.7179336 3.369952-4.3085633 3.369-7.046v-4.954h5zm1-12c.5522847 0 1 .4477153 1 1s-.4477153 1-1 1h-6v-2zm-5-34c0 3.474-.719 5.578-1.129 6h-6.013c-.3799-1.4761781-1.5657576-2.608133-3.058-2.919.088-.656.147-1.354.175-2.081h1.025c.5522847 0 1-.44771525 1-1s-.4477153-1-1-1h-1.025c-.0422242-1.70016707-.3343521-3.3848724-.867-5h9.763c.41.422 1.129 2.526 1.129 6zm-18 26h-4v-5h4zm-8-13h2v15c0 .5522847-.4477153 1-1 1s-1-.4477153-1-1zm10 0h2v15c0 .5522847-.4477153 1-1 1s-1-.4477153-1-1zm4 0c.5522847 0 1-.4477153 1-1s-.4477153-1-1-1h-6c-.5522847 0-1 .4477153-1 1s.4477153 1 1 1v6h-4v-6c.5522847 0 1-.4477153 1-1s-.4477153-1-1-1h-6c-.5522847 0-1 .4477153-1 1s.4477153 1 1 1v5.858c-1.7606851-.4545933-2.9931852-2.0395884-3-3.858v-8c0-1.1045695.8954305-2 2-2h18c1.1045695 0 2 .8954305 2 2v8c-.0068148 1.8184116-1.2393149 3.4034067-3 3.858zm-15-14h-.973c.123-2.911.748-4.654 1.115-5h13.716c.367.346.992 2.089 1.115 5h-.973c-.5522847 0-1 .44771525-1 1s.4477153 1 1 1h.979c-.0265584.66933166-.0873043 1.3368688-.182 2h-15.597c-.0946957-.6631312-.1554416-1.33066834-.182-2h.982c.5522847 0 1-.44771525 1-1s-.4477153-1-1-1zm-13 1c0-3.474.719-5.578 1.129-6h9.763c-.5326479 1.6151276-.8247758 3.29983293-.867 5h-1.025c-.5522847 0-1 .44771525-1 1s.4477153 1 1 1h1.022c.028.727.087 1.425.175 2.081-1.4910884.3118864-2.6755816 1.4436493-3.055 2.919h-6.013c-.41-.422-1.129-2.526-1.129-6zm3 14.794c-.0021861-2.7127561 1.5536187-5.1857078 4-6.358v6.564c.0054296 2.9246159 2.1166966 5.4201335 5 5.91v5.09h-1c-.5522847 0-1 .4477153-1 1s.4477153 1 1 1h1c0 1.6568542 1.3431458 2.9999999 3 2.9999999s3-1.3431457 3-2.9999999h4c0 1.6568542 1.3431458 3 3 3s3-1.3431458 3-3h1c.5522847 0 1-.4477153 1-1s-.4477153-1-1-1h-1v-5.09c2.8833034-.4898665 4.9945704-2.9853841 5-5.91v-6.564c2.4463813 1.1722922 4.0021861 3.6452439 4 6.358v28.16c.0083087 3.8768912-3.1231376 7.0289155-7 7.046h-20c-3.8768624-.0170845-7.0083087-3.1691088-7-7.046zm-8 19.206h6v2h-6c-.55228475 0-1-.4477153-1-1s.44771525-1 1-1z"/><path id="Shape" d="m30 15h-4c-.5522847 0-1 .4477153-1 1s.4477153 1 1 1h4c.5522847 0 1-.4477153 1-1s-.4477153-1-1-1z"/></g></g></svg>