<svg height="512" viewBox="0 0 48 60" width="512" xmlns="http://www.w3.org/2000/svg"><g id="Page-1" fill="none" fill-rule="evenodd"><g id="019---Cooking" fill="rgb(255,255,255)" fill-rule="nonzero"><path id="Shape" d="m16 56c3.3137085 0 6-2.6862915 6-6s-2.6862915-6-6-6-6 2.6862915-6 6c.0033074 3.3123376 2.6876624 5.9966926 6 6zm0-10c2.209139 0 4 1.790861 4 4s-1.790861 4-4 4-4-1.790861-4-4 1.790861-4 4-4z"/><path id="Shape" d="m16.293 51.707c.3923789.3789722 1.0160848.3735524 1.4018186-.0121814s.3911536-1.0094397.0121814-1.4018186l-2-2c-.3923789-.3789722-1.0160848-.3735524-1.4018186.0121814s-.3911536 1.0094397-.0121814 1.4018186z"/><path id="Shape" d="m29 17v-6h15.5c1.9329966 0 3.5-1.56700338 3.5-3.5s-1.5670034-3.5-3.5-3.5h-15.5c.001943-.52453772.2098781-1.02731699.579-1.4.4216906-.43811905.5398868-1.08622853.3-1.645-.2400619-.57746138-.8036277-.95409215-1.429-.955h-24.9c-.62379736.00046715-1.18653016.37483422-1.428.95-.24146434.56054728-.12322951 1.21123295.3 1.651.36961203.37186789.57735515.87469249.578 1.399v13c-.0004075 2.4058811 1.08411305 4.6836682 2.952 6.2-1.35859638.5055832-2.1598316 1.9118464-1.90207417 3.3383665.25775742 1.4265201 1.5004552 2.4634657 2.95007417 2.4616335h5v.574c-.0038232.9926175-.495501 1.919888-1.315 2.48-2.03213638 1.4879014-3.5591142 3.5631951-4.375 5.946h-1.31c-2.76005315.0033061-4.99669388 2.2399468-5 5v12c.00330612 2.7600532 2.23994685 4.9966939 5 5h22c2.7600532-.0033061 4.9966939-2.2399468 5-5v-12c-.0033061-2.7600532-2.2399468-4.9966939-5-5h-1.31c-.5324567-1.4503424-1.3022804-2.8020959-2.278-4h2.588c0 .5522847.4477153 1 1 1s1-.4477153 1-1h2v1c0 .5522847.4477153 1 1 1s1-.4477153 1-1v-4c0-.5522847-.4477153-1-1-1s-1 .4477153-1 1v1h-2c0-.5522847-.4477153-1-1-1s-1 .4477153-1 1h-4.746c-.7819029-.5616033-1.2480054-1.4633296-1.254-2.426v-.574h5c1.449619.0018322 2.6923167-1.0351134 2.9500742-2.4616335.2577574-1.4265201-.5434778-2.8327833-1.9020742-3.3383665 1.8678869-1.5163318 2.9524075-3.7941189 2.952-6.2zm15.5-11c.8284271 0 1.5.67157288 1.5 1.5s-.6715729 1.5-1.5 1.5h-17.5c-.5522847 0-1-.44771525-1-1v-1c0-.55228475.4477153-1 1-1zm-39.5 11v-13c.00117123-.70218261-.18340379-1.39218268-.535-2h23.071c-.3520786.60766483-.53701 1.29770742-.536 2-1.6568542 0-3 1.34314575-3 3v1c0 1.65685425 1.3431458 3 3 3v6c-.0033074 3.3123376-2.6876624 5.9966926-6 6h-10c-3.31233757-.0033074-5.99669262-2.6876624-6-6zm25 26v12c0 1.6568542-1.3431458 3-3 3h-22c-1.65685425 0-3-1.3431458-3-3v-12c0-1.6568542 1.34314575-3 3-3h22c1.6568542 0 3 1.3431458 3 3zm-9.817-9.3c1.4960045 1.0936616 2.6574837 2.5827375 3.354 4.3h-15.074c.69619241-1.7174495 1.8577352-3.2066069 3.354-4.3 1.3627998-.9318576 2.1792888-2.4750705 2.183-4.126v-.574h4v.574c.0037112 1.6509295.8202002 3.1941424 2.183 4.126zm4.817-8.7c.5522847 0 1 .4477153 1 1s-.4477153 1-1 1h-18c-.55228475 0-1-.4477153-1-1s.44771525-1 1-1z"/><path id="Shape" d="m8 13c.55228475 0 1-.4477153 1-1v-7c0-.55228475-.44771525-1-1-1s-1 .44771525-1 1v7c0 .5522847.44771525 1 1 1z"/><path id="Shape" d="m11 21h1c.5522847 0 1-.4477153 1-1s-.4477153-1-1-1h-1c-1.1045695 0-2-.8954305-2-2v-1c0-.5522847-.44771525-1-1-1s-1 .4477153-1 1v1c0 2.209139 1.790861 4 4 4z"/></g></g></svg>