<svg height="512" viewBox="0 0 60 60" width="512" xmlns="http://www.w3.org/2000/svg"><g id="Page-1" fill="none" fill-rule="evenodd"><g id="043---Hat" fill="rgb(255,255,255)" fill-rule="nonzero"><path id="Shape" d="m22 10c1.6568542 0 3-1.34314575 3-3s-1.3431458-3-3-3-3 1.34314575-3 3 1.3431458 3 3 3zm0-4c.5522847 0 1 .44771525 1 1s-.4477153 1-1 1-1-.44771525-1-1 .4477153-1 1-1z"/><path id="Shape" d="m38 10c1.6568542 0 3-1.34314575 3-3s-1.3431458-3-3-3-3 1.34314575-3 3 1.3431458 3 3 3zm0-4c.5522847 0 1 .44771525 1 1s-.4477153 1-1 1-1-.44771525-1-1 .4477153-1 1-1z"/><path id="Shape" d="m53 24h-6.08l-1.694-20.332c-.1836241-2.06779203-1.9101026-3.65653338-3.986-3.668h-22.48c-2.0758974.01146662-3.8023759 1.60020797-3.986 3.668l-1.694 20.332h-6.08c-3.86416566.0044086-6.99559136 3.1358343-7 7v1c0 1.1045695.8954305 2 2 2h5.99c.034 3.2.639 12.918 6.475 19 3.0351162 3.1173209 7.1845571 4.9008431 11.535 4.958v.042c0 1.1045695.8954305 2 2 2h4c1.0914268.0001577 1.9814458-.8747309 2-1.966 1.761.095 5.428.451 7.448 1.8.4595009.306518 1.080482.1825009 1.387-.277s.1825009-1.080482-.277-1.387c-.9174531-.5759741-1.9172382-1.0089333-2.965-1.284 2.2527001-.8220486 4.2858839-2.1517275 5.942-3.886 5.836-6.084 6.441-15.8 6.475-19h5.99c1.1045695 0 2-.8954305 2-2v-1c-.0044086-3.8641657-3.1358343-6.9955914-7-7zm-36.232-20.166c.0913237-1.03373892.9542511-1.82822123 1.992-1.834h22.48c1.0377489.00577877 1.9006763.80026108 1.992 1.834l1.268 15.166h-29zm-1.431 17.166h29.326l.25 3h-29.826zm12.663 37v-2h4v2zm16.086-6.377c-2.6609543 2.7154874-6.284603 4.2733043-10.086 4.336-.0223194-1.0885253-.9112459-1.9592288-2-1.959h-4c-1.0887541-.0002288-1.9776806.8704747-2 1.959-3.80279-.0616488-7.4280653-1.6195471-10.09-4.336-5.271-5.493-5.864-14.66-5.91-17.623h40c-.046 2.963-.639 12.13-5.914 17.623zm13.914-19.623h-56v-1c.00330612-2.7600532 2.23994685-4.9966939 5-5h46c2.7600532.0033061 4.9966939 2.2399468 5 5z"/><path id="Shape" d="m49 28h-38c-.5522847 0-1 .4477153-1 1s.4477153 1 1 1h38c.5522847 0 1-.4477153 1-1s-.4477153-1-1-1z"/><path id="Shape" d="m28 6h4c.5522847 0 1-.44771525 1-1s-.4477153-1-1-1h-4c-.5522847 0-1 .44771525-1 1s.4477153 1 1 1z"/></g></g></svg>