<?xml version="1.0" encoding="utf-8"?>
<!-- Generator: Adobe Illustrator 24.2.1, SVG Export Plug-In . SVG Version: 6.00 Build 0)  -->
<svg version="1.1" id="Layer_1" xmlns="http://www.w3.org/2000/svg" xmlns:xlink="http://www.w3.org/1999/xlink" x="0px" y="0px"
	 viewBox="0 0 120.72 120.72" style="enable-background:new 0 0 120.72 120.72;" xml:space="preserve">
<style type="text/css">
	.st0{fill:none;stroke:#E0E0E0;stroke-width:8;stroke-miterlimit:10;}
	.st1{fill:none;stroke:#E0E0E0;stroke-width:3;stroke-miterlimit:10;}
	.st2{fill:#E0E0E0;}
</style>
<polyline class="st0" points="7.52,46.28 7.52,6.47 47.33,6.47 "/>
<polyline class="st1" points="113.68,72.32 113.68,112.13 73.87,112.13 "/>
<polyline class="st1" points="73.87,6.47 113.68,6.47 113.68,46.28 "/>
<polyline class="st1" points="47.33,112.13 7.52,112.13 7.52,72.32 "/>
<g>
	<path class="st2" d="M47.53,75.78H58v5.45H41.35c-1.67-16.21,1.31-24.42,9.01-29.21c-5.6-6.18-8.28-10.83-9.37-13.52l5.31-2.62
		c0.94,2.11,3.12,6.18,9.08,12.79l11.85,13.15c5.6-3.12,9.01-8.43,8.72-18.68h-3.92c-3.56,0-5.89-0.51-8.43-1.96l2.03-5.16
		c2.91,1.38,4.43,1.6,8.36,1.6h7.99c1.16,16.86-3.71,23.62-11.12,27.91l12.21,13.01l-4.22,4.07L54.14,55.65
		C47.31,59.8,46.66,68.08,47.53,75.78z"/>
</g>
</svg>
