<svg id="Layer_1" data-name="Layer 1" xmlns="http://www.w3.org/2000/svg" viewBox="0 0 111.66 111.17"><defs><style>.cls-1,.cls-2{fill:none;stroke-miterlimit:10;}.cls-1{stroke:#b92900;stroke-width:8px;}.cls-2{stroke:#000;stroke-width:3px;}</style></defs><polyline class="cls-1" points="4 43.81 4 4 43.81 4"/><polyline class="cls-2" points="110.16 69.86 110.16 109.67 70.35 109.67"/><polyline class="cls-2" points="70.35 4 110.16 4 110.16 43.81"/><polyline class="cls-2" points="43.81 109.67 4 109.67 4 69.86"/><path d="M47.53,75.78H58v5.45H41.35C39.68,65,42.66,56.82,50.36,52,44.77,45.84,42.08,41.19,41,38.5l5.31-2.61c.94,2.1,3.12,6.17,9.08,12.79L67.23,61.83c5.59-3.12,9-8.43,8.72-18.68H72a15.48,15.48,0,0,1-8.43-2l2-5.16c2.9,1.38,4.43,1.6,8.35,1.6h8c1.16,16.86-3.71,23.62-11.12,27.91l12.21,13-4.22,4.07-24.71-27C47.31,59.8,46.66,68.08,47.53,75.78Z" transform="translate(-3.52 -2.47)"/></svg>